inDegrees=no
num_controls=7
num_derivatives=13
num_iterations=106
num_multipliers=7
num_parameters=0
num_slacks=7
num_states=26
objective=0.516885
objective_accelerations=0.039804
objective_balance=0.002298
objective_effort=0.044288
objective_height=0.418842
objective_ligament=0.011653
solver_duration=1401.422826
status=Solve_Succeeded
success=true
DataType=double
version=3
OpenSimVersion=4.5
endheader
time	/jointset/ground_pelvis/pelvis_tilt/value	/jointset/ground_pelvis/pelvis_tx/value	/jointset/ground_pelvis/pelvis_ty/value	/jointset/hip_l/hip_flexion_l/value	/jointset/hip_l/hip_adduction_l/value	/jointset/hip_l/hip_rotation_l/value	/jointset/back/lumbar_extension/value	/jointset/patellofemoral_l/patellar_flexion_l/value	/jointset/knee_l/knee_flexion_l/value	/jointset/knee_l/knee_adduction_l/value	/jointset/knee_l/knee_rotation_l/value	/jointset/ankle_l/ankle_angle_l/value	/jointset/subtalar_l/subtalar_angle_l/value	/jointset/ground_pelvis/pelvis_tilt/speed	/jointset/ground_pelvis/pelvis_tx/speed	/jointset/ground_pelvis/pelvis_ty/speed	/jointset/hip_l/hip_flexion_l/speed	/jointset/hip_l/hip_adduction_l/speed	/jointset/hip_l/hip_rotation_l/speed	/jointset/back/lumbar_extension/speed	/jointset/patellofemoral_l/patellar_flexion_l/speed	/jointset/knee_l/knee_flexion_l/speed	/jointset/knee_l/knee_adduction_l/speed	/jointset/knee_l/knee_rotation_l/speed	/jointset/ankle_l/ankle_angle_l/speed	/jointset/subtalar_l/subtalar_angle_l/speed	/forceset/tau_hip_flexion_l	/forceset/tau_hip_adduction_l	/forceset/tau_hip_rotation_l	/forceset/tau_knee_flexion_l	/forceset/tau_ankle_angle_l	/forceset/tau_subtalar_angle_l	/forceset/tau_lumbar_extension	lambda_cid13_p0	lambda_cid13_p1	lambda_cid13_p2	lambda_cid13_p3	lambda_cid13_p4	lambda_cid13_p5	lambda_cid14_p0	/jointset/ground_pelvis/pelvis_tilt/accel	/jointset/ground_pelvis/pelvis_tx/accel	/jointset/ground_pelvis/pelvis_ty/accel	/jointset/hip_l/hip_flexion_l/accel	/jointset/hip_l/hip_adduction_l/accel	/jointset/hip_l/hip_rotation_l/accel	/jointset/back/lumbar_extension/accel	/jointset/patellofemoral_l/patellar_flexion_l/accel	/jointset/knee_l/knee_flexion_l/accel	/jointset/knee_l/knee_adduction_l/accel	/jointset/knee_l/knee_rotation_l/accel	/jointset/ankle_l/ankle_angle_l/accel	/jointset/subtalar_l/subtalar_angle_l/accel	gamma_cid13_p0	gamma_cid13_p1	gamma_cid13_p2	gamma_cid13_p3	gamma_cid13_p4	gamma_cid13_p5	gamma_cid14_p0
0	-0.03674443220268808	0.05664328877438056	0.9203430422323969	0.3085816938045678	-0.295617336406887	-0.3011129112978897	-0.3879492264334186	0.2499269421186326	0.2499269421184919	-0.1745313207459261	-0.1740474363081388	-0.0008036623358878681	0.0004552414231402765	0	0	0	0	0	0	0	0	0	0	0	0	0	0.06621590301951157	-0.02755172562876958	-0.01772418362332469	-0.2242371732938117	0.153288940193749	-0.02040535594000514	0.004617282925294038	4.937541188595707	5.038066897945167	2.122892335582528	25.83862490858909	-626.7408447698944	-64.97613920012623	-23.18051263123873	-1.43251469227239	-2.338011716124165	-0.8684123035153029	9.06295903459978	-0.5298073374930071	2.741067433238309	-7.26476788073979	7.43307490304091	7.433074903040831	1.262213325466714	0.06858075476332025	0.2653818420105945	-0.4912460332332668	2.614528755045149e-08	2.83681207786833e-07	-2.294609162332428e-08	-6.702878109024723e-10	1.695420809369992e-07	1.070558599593443e-07	3.046455285481154e-08
0.01	-0.03681076599290394	0.05652923693801259	0.9203007500195991	0.3090207303216343	-0.2956449396829772	-0.3009779427165105	-0.3883076219745953	0.2502918907046677	0.2502918907045203	-0.1744726297937022	-0.1740443690425874	-0.0007895474887740329	0.0004298470227211313	-0.01304572931961183	-0.02254471975498416	-0.008403950061037318	0.08702628902542582	-0.005577911812834744	0.02664100521383938	-0.07087088995978934	0.07274162109626711	0.0727416210962664	0.01155832076744026	0.0003376766028700213	0.003049522370076234	-0.00505534698740918	0.05619231051497767	-0.03480161249064524	-0.01657498213854844	-0.216465540762062	0.1443011515656606	-0.007971390423062488	0.01419604512933341	2.415977045732933	0.1270150746186599	2.851578586830593	24.09652585547209	-630.4930098334847	-74.20614471947022	-23.18455318504342	-1.207454475151655	-2.172855119389166	-0.8181785743452894	8.405307804794969	-0.5804113625364506	2.572727286001435	-6.877016807050111	7.157485206283285	7.157485206283056	1.07570514767792	-0.02501827572716713	0.3587285943291844	-0.5091915883472243	-1.971022140266679e-09	1.368795718003084e-07	5.292918362228494e-08	7.631417501006761e-09	4.164071544050618e-08	2.595116290504928e-08	5.892025674243218e-09
0.02	-0.03700092756109382	0.05619770730124538	0.920176059862804	0.310306598522546	-0.2957300477290576	-0.300587142038869	-0.3893504798660816	0.2513768114002808	0.2513768114002768	-0.1743037428946572	-0.1740462008888253	-0.0007381391859965454	0.0003545966410570207	-0.02476555557252557	-0.04349556007984678	-0.01647958879945862	0.1693663367820909	-0.01150095399997976	0.05116641924945033	-0.1368924700572021	0.1439944219271251	0.1439944219271242	0.02203918934667857	-0.0009798223453233738	0.007458691133046261	-0.009971196248941551	0.04616871801049742	-0.04205149935260288	-0.0154257806532579	-0.2086939082303377	0.1353133629375817	0.004462575093793367	0.02377480733340912	-0.04772424637147051	-4.79205065864591	3.579123530352639	22.31719046613885	-633.3431245825269	-83.36347264632633	-23.1969185680523	-1.16733407892952	-2.019235830102693	-0.8027500389921463	8.125710780848038	-0.5988334123549284	2.317949197592415	-6.294905908262727	7.135310849959803	7.135310849959835	1.046722887826826	-0.2624543554498363	0.5373111205863319	-0.4633464880588144	-3.008733183098486e-08	-9.922064186216218e-09	1.288044588678942e-07	1.593312281291599e-08	-8.626065005598682e-08	-5.515353414924577e-08	-1.86805015063251e-08
0.03	-0.03730412054396894	0.05566308012925409	0.9199717646496712	0.3123975382009144	-0.2958748811372826	-0.2999572333555131	-0.3910340495755401	0.2531660107042765	0.2531660107042673	-0.1740338118658165	-0.1740644530834734	-0.0006381286180287786	0.000231308005051329	-0.03587184942812013	-0.06331874926165476	-0.02436921436429792	0.2485084740717461	-0.01740714240876934	0.07491298837048944	-0.1995152500963133	0.2135024584056531	0.2135024584056558	0.03190953733977036	-0.002436075916004468	0.01253847294183812	-0.01462927886242603	0.04380688256124085	-0.03772485509289333	-0.01539979435124566	-0.2092567417563801	0.1390794004605241	0.0007235857413453811	0.02642893453467712	1.003700021023907	-3.366034452458368	3.367460868933405	20.86979926981096	-634.2478030885915	-79.96418503119743	-23.21761996361845	-1.082099931309536	-1.947188491254057	-0.780550664842523	7.761493022014424	-0.5777345719410721	2.417639434830801	-6.200030786112804	6.807106813941295	6.807106813941351	0.9515772697878956	-0.05200583916798901	0.4925687520299949	-0.4584643305402296	-4.453294759568558e-08	3.512866691639567e-08	1.659778018280463e-07	3.60475144406042e-08	-1.455239585266773e-07	-6.344022954824304e-08	-1.79789278906324e-08
